<svg xmlns="http://www.w3.org/2000/svg" version="1.1" xmlns:xlink="http://www.w3.org/1999/xlink" width="200" height="200"><svg xmlns="http://www.w3.org/2000/svg" version="1.1" xmlns:xlink="http://www.w3.org/1999/xlink" viewBox="0 0 200 200"><rect width="200" height="200" fill="url('#gradient')"></rect><defs><linearGradient id="SvgjsLinearGradient1052" gradientTransform="rotate(45 0.5 0.5)"><stop offset="0%" stop-color="#ffffff"></stop><stop offset="100%" stop-color="#ffffff"></stop></linearGradient></defs><g><g fill="#000000" transform="matrix(3.7123867069486405,0,0,3.7123867069486405,10.105691604113645,118.46970825252934)" stroke="#58a5b1" stroke-width="0.75"><path d="M9.98 0L9.15-2.66L4.45-2.66L3.63 0L-0.03 0L5.19-14.22L8.41-14.22L13.66 0L9.98 0ZM6.80-10.23L5.27-5.30L8.33-5.30L6.80-10.23ZM18.35-14.22L18.35 0L14.93 0L14.93-14.22L18.35-14.22ZM29.82 0L26.53 0Q26.36-0.32 26.22-0.95L26.22-0.95Q25.31 0.20 23.68 0.20L23.68 0.20Q22.19 0.20 21.14-0.71Q20.10-1.61 20.10-2.98L20.10-2.98Q20.10-4.70 21.37-5.58Q22.64-6.46 25.06-6.46L25.06-6.46L26.07-6.46L26.07-7.01Q26.07-8.47 24.81-8.47L24.81-8.47Q23.64-8.47 23.64-7.31L23.64-7.31L20.35-7.31Q20.35-8.85 21.66-9.80Q22.96-10.76 24.98-10.76Q27.00-10.76 28.17-9.78Q29.35-8.79 29.38-7.07L29.38-7.07L29.38-2.39Q29.39-0.94 29.82-0.17L29.82-0.17L29.82 0ZM24.47-2.15L24.47-2.15Q25.09-2.15 25.49-2.41Q25.90-2.68 26.07-3.01L26.07-3.01L26.07-4.70L25.12-4.70Q23.40-4.70 23.40-3.15L23.40-3.15Q23.40-2.71 23.70-2.43Q24.00-2.15 24.47-2.15ZM37.65-10.64L37.59-7.59L36.50-7.67Q34.95-7.67 34.51-6.69L34.51-6.69L34.51 0L31.22 0L31.22-10.57L34.31-10.57L34.41-9.21Q35.24-10.76 36.73-10.76L36.73-10.76Q37.26-10.76 37.65-10.64L37.65-10.64ZM41.50-10.57L43.17-4.61L44.93-10.57L48.46-10.57L44.15 1.77L43.96 2.22Q43.05 4.27 40.72 4.27L40.72 4.27Q40.08 4.27 39.37 4.07L39.37 4.07L39.37 1.72L39.79 1.72Q40.49 1.72 40.85 1.52Q41.22 1.32 41.40 0.80L41.40 0.80L41.66 0.10L37.99-10.57L41.50-10.57Z"></path></g></g></svg><style>@media (prefers-color-scheme: light) { :root { filter: none; } }
@media (prefers-color-scheme: dark) { :root { filter: none; } }
</style></svg>